<svg xmlns="http://www.w3.org/2000/svg" viewBox="0 0 425.2 99.63"><defs><style>.cls-1{fill:#231815;}</style></defs><title>アセット 1</title><g id="レイヤー_2" data-name="レイヤー 2"><g id="レイヤー_2-2" data-name="レイヤー 2"><path d="M387.64,49.48a.47.47,0,0,0-.1-.1l-.11-.08a6,6,0,0,0-2.71-.31l-1,0-.36,0a.44.44,0,0,1-.2,0s-.06,0-.09,0l-4.07.15a1.67,1.67,0,0,1-.49.08c-.46,0-.92,0-1.38,0-2.59.11-5.22.23-6.92.33a3.17,3.17,0,0,1-.81.07,10.34,10.34,0,0,0-1.47.17c-.43,0-.85.14-1.28.16a5.82,5.82,0,0,0-.85.09c-.81.16-1.63.21-2.43.39-.37.08-.76.09-1.13.18s-.83.29-1.26.38a2.51,2.51,0,0,0-1.63,1.38,4.91,4.91,0,0,0-.59,1.59,8.79,8.79,0,0,0-.2,2c0,.47,0,1,0,1.43,0,.18,0,.36,0,.55v1.1a2,2,0,0,0,.05.42.29.29,0,0,0,0,.09c0,.67.09,1.32.16,2,0,.26.06.49.09.72l0,.14c0,.1,0,.22,0,.32s0,0,0,0a12.21,12.21,0,0,0,.4,1.69,1.91,1.91,0,0,0,1.18,1.28,4.22,4.22,0,0,0,.83.17,1.9,1.9,0,0,0,1.18-.18l.46-.17a10,10,0,0,0,2-.76c.21-.13.43-.25.65-.37.37-.18,7.84-3.76,10.49-5.34l.08,0a7.31,7.31,0,0,0,.84-.52h0a73.55,73.55,0,0,0,9.89-7,1.71,1.71,0,0,0,.81-1.19A1,1,0,0,0,387.64,49.48Z"/><path d="M379.79,78.06c1.19-1.69,1.54-3,2.8-5.61,1-2,2.23-5.12,3.14-7.52.09-.3.18-.59.29-.88a19.53,19.53,0,0,0,.77-2.1,1.6,1.6,0,0,0-.72-1.64,2.72,2.72,0,0,0-.25-.11c-1.2-.23-3,.72-4.2,1.4s-7.48,4.56-9.12,5.55S366.6,70.6,361.78,74c-.33.25-.66.5-1,.77a20.53,20.53,0,0,0-2.09,2,3.13,3.13,0,0,0-.8,1.46,1.28,1.28,0,0,0,.56,1.39,8.81,8.81,0,0,0,2.16.76,5.24,5.24,0,0,0,.79.15,55,55,0,0,0,15.92-.69A3.56,3.56,0,0,0,379.79,78.06Z"/><path d="M425.15,78.17a10.91,10.91,0,0,1-.11-1.71c0-.18.11-.35.06-.53a11.22,11.22,0,0,1-.11-1.74,12.8,12.8,0,0,1-.08-2s0-.09,0-.13a5.54,5.54,0,0,1-.12-1.15c0-.51,0-1-.09-1.52-.07-.93-.06-1.87-.1-2.81,0-.29,0-.58,0-.87-.08-.7-.18-1.67-.3-2.77v-.1c-.27-2.5-.63-5.68-.9-8.13a4.81,4.81,0,0,1-.09-.85c-.06-.48-.11-.93-.15-1.31s-.07-.67-.11-1-.12-.76-.17-1.14a1,1,0,0,1,0-.25l-.12-.74c0-.05,0-.09,0-.14-.28-1.79-.65-4.07-1-7.06,0-.23-.06-.45-.09-.68-.05-.43-.09-.87-.17-1.3-.59-3.75-1.18-9.44-2.75-18.13-.06-.46-.11-.92-.18-1.38s-.13-1-.24-1.53c-.2-1-.36-1.93-.57-2.89a1.8,1.8,0,0,1-.06-.32,16.14,16.14,0,0,0-.31-2q-.19-1-.36-2.1-.12-.86-.3-1.71c-.1-.53-.22-1-.3-1.58s-.16-1-.24-1.56-.21-.8-.29-1.21l-.27-1.42h0a22.17,22.17,0,0,0-.65-3.23,3.12,3.12,0,0,0-.19-.59v0h0a2.21,2.21,0,0,0-.18-.34.58.58,0,0,0-.64-.31,1.33,1.33,0,0,0-1,.71c-.26.5-.43,1-.68,1.53-.38.72-.72,1.46-1.09,2.19-.53,1-.93,2.12-1.36,3.2-.19.48-.32,1-.53,1.44-.08.17-.2.32-.27.49-.19.45-.37.9-.57,1.33-.31.68-.54,1.39-.86,2.07a8.58,8.58,0,0,0-.43,1,16.06,16.06,0,0,1-.76,1.88c-.25.6-.48,1.2-.72,1.8s-.34,1.14-.6,1.67a11.17,11.17,0,0,0-.88,2.15,12.93,12.93,0,0,1-.46,1.23c-.23.61-.43,1.24-.6,1.87s-.47,1.18-.65,1.79c-.1.34-.3.66-.37,1a3.08,3.08,0,0,1-.28.84,1.39,1.39,0,0,0-.14.54v0c-.06.17-.11.34-.17.52a5.38,5.38,0,0,1-.45,1.11,1.14,1.14,0,0,0-.17.43c-.08.39-.16.78-.27,1.16s-.27.82-.4,1.22h0L399,36.77c0,.13-.11.25-.15.38l-.09.34-1.38,4.15c-.2.45-.31.93-.47,1.4-.67,2-1.38,4.15-2.09,6.26v.05c-.16.49-.33,1-.47,1.46-.27.93-.66,1.82-.86,2.78s-.58,1.7-.73,2.58c-.09.52-.33,1-.44,1.52a15.37,15.37,0,0,1-.43,1.65c-.17.52-.32,1-.47,1.57s-.27,1-.41,1.45-.14.75-.26,1.12a18.1,18.1,0,0,0-.55,1.91c-.08.4-.24.77-.31,1.17-.15.75-.32,1.5-.48,2.25-.12.52-.29,1-.38,1.55s-.24,1.16-.38,1.73-.32,1.41-.5,2.11a.86.86,0,0,0,0,.16c-.54,2.46-1.05,4.09-.54,5s1.57,1,2.44,1.28c.32.08,1.2.19,2.27.32l.08,0a1.73,1.73,0,0,0,.7.15,12.43,12.43,0,0,1,1.93.12l1.66.17c.23,0,.46.06.69.08l.24,0,1.21.13a11.2,11.2,0,0,0,1.42.15h.18c2.24.2,5.08.42,6.94.52l.14,0a4,4,0,0,0,1.19,0,113.87,113.87,0,0,0,12.23-.91c2.62-.44,3.2-.7,3.6-1a1.12,1.12,0,0,0,.67-.84A6.48,6.48,0,0,0,425.15,78.17Z"/><path class="cls-1" d="M118.43,53c0-1.1.06-1.82,0-2.66a7.53,7.53,0,0,1,0-1.36c0-1.09,0-2.19,0-3.25,0-.66,0-1.32,0-2a2.67,2.67,0,0,0-.65-1.9.48.48,0,0,0-.35-.16h0c-1.15.05-2.38,0-3.85,0l-1,0-.91,0h-.8a8.47,8.47,0,0,1-1.24,0,1.48,1.48,0,0,0-1.14.33,1.85,1.85,0,0,0-.7,1.24,4.21,4.21,0,0,0,0,.71l.06,1.06c0,.56.06,1.12.08,1.68s0,1.1,0,1.65c0,.85,0,1.73.1,2.61v0c0,6.65.12,5.88.06,7.8s0,2.83-.07,3.86-.14,2.09-.14,2.09h0a2.38,2.38,0,0,0,0,.36,1.21,1.21,0,0,1,0,.19c0,.24,0,.47,0,.71a7.25,7.25,0,0,1-.33,2.14,4.77,4.77,0,0,1-3.42,3.23,12.68,12.68,0,0,1-4.29.34,7.19,7.19,0,0,1-2.38-.66,2.61,2.61,0,0,1-.63-.31A3.13,3.13,0,0,1,96,70a5.14,5.14,0,0,1-2.34-4.47c-.08-1-.13-2-.16-3l0-.77c-.06-1.44-.07-3,0-4.63,0-.46,0-.93,0-1.39a13.32,13.32,0,0,1,0-1.67c0-.19,0-.4,0-.61v0a.41.41,0,0,1,0-.11v-.19c.06-1.42.12-4.31.07-6.34h0c.08-1.22.13-2.43.12-3.62V43a1.75,1.75,0,0,0-.23-1.05,1.2,1.2,0,0,0-.64-.36c-.44,0-.9-.07-1.33-.08L85,41.57a4,4,0,0,0-.9.13,1.17,1.17,0,0,0-.89.92,1.55,1.55,0,0,0-.07.76,3.77,3.77,0,0,1,.05,1c0,.19,0,.39,0,.58,0,.35,0,.69,0,1a19,19,0,0,1,0,2.39,18.15,18.15,0,0,0,0,2.2c0,1.49-.05,2.5,0,4.27,0,2.5-.09,3.51-.09,4a4.17,4.17,0,0,0,0,.5v.39h0c0,1.57.15,4.29.11,6.18a17.8,17.8,0,0,0,1.46,7.19,13.31,13.31,0,0,0,6.07,6.33,14.88,14.88,0,0,0,6,2.28l.18,0,1.69.2a28,28,0,0,0,3.17.14,7.24,7.24,0,0,0,1.72-.11l.13,0a6.23,6.23,0,0,1,1.3-.2,5,5,0,0,0,1.75-.38l.65-.22.56-.19.11,0a4.06,4.06,0,0,0,.71-.29l.38-.2c.6-.32,1.22-.65,1.8-1,.77-.49,1.5-1,2.11-1.52.17-.14.34-.29.5-.45,1.81-1.87,3.27-3.2,4-6.26A39.15,39.15,0,0,0,118.3,64h0a7.56,7.56,0,0,1,0-1.25,24,24,0,0,0,.12-2.92,15.47,15.47,0,0,1,0-3C118.66,55.25,118.35,54.63,118.43,53Z"/><path class="cls-1" d="M33.44,63.74c0-.26,0-.52,0-.77s0-.71-.07-1-.09-.58-.14-.87a.53.53,0,0,0,0-.21l0-.17L33,60.21c-.06-.27-.14-.54-.22-.84,0-.09-.06-.19-.1-.29a16.84,16.84,0,0,0-1.36-3.19,13.94,13.94,0,0,0-1.47-2.12v0A23.47,23.47,0,0,0,26.32,50h0a17.45,17.45,0,0,0-2.17-1.61l0,0C23.05,47.6,22,47,21,46.39a3.84,3.84,0,0,0-.35-.18l-2-1.21h0a15.72,15.72,0,0,0-1.89-1.29,1.81,1.81,0,0,1-.35-.3,3.15,3.15,0,0,0-.55-.45,6.29,6.29,0,0,1-1-.74l-.25-.2A5.68,5.68,0,0,1,13,39.72a4.76,4.76,0,0,1-.37-2.36,12.05,12.05,0,0,1,.44-2,4.84,4.84,0,0,1,2.87-3.17c.23-.1.46-.18.69-.26a5.42,5.42,0,0,1,3.63.18,50.31,50.31,0,0,1,4.59,2.27,6.81,6.81,0,0,0,1.75.73.41.41,0,0,0,.19,0,1.37,1.37,0,0,0,.85-.57l.23-.3c.2-.27.4-.53.6-.81s.42-.62.62-.93c.41-.61.83-1.25,1.29-1.82a9.36,9.36,0,0,0,1.17-2l.24-.47A1.43,1.43,0,0,0,31.86,27a.34.34,0,0,0-.09-.14A11.31,11.31,0,0,0,29.36,25l-.17-.1a3.94,3.94,0,0,1-.55-.35,28,28,0,0,0-4.81-2.45,14,14,0,0,0-6.49-1.16c-.3,0-.6,0-.9.08a15.4,15.4,0,0,0-4.78,1.33l-.29.13a6,6,0,0,1-.9.4A6.33,6.33,0,0,0,8,24.32l-.17.16a23.12,23.12,0,0,1-2,1.75,2,2,0,0,0-.47.54C5,27.5,4.48,28.25,4,29a14.24,14.24,0,0,0-1.95,4.79L2,34.13c-.05.29-.11.59-.19.88a4.36,4.36,0,0,0-.07,1.71c0,.14,0,.28.05.42a3.78,3.78,0,0,1,.07.87,5.28,5.28,0,0,0,.27,2.06c.16.49.28,1,.4,1.51a10.16,10.16,0,0,0,.93,2.77,5.19,5.19,0,0,0,1.33,2.54l.13.14a2.82,2.82,0,0,1,.33.41,4,4,0,0,0,1.47,1.68,1.08,1.08,0,0,1,.13.15l.22.25c.18.16.34.33.51.49a7.93,7.93,0,0,0,1.48,1.26l1.23.75c.89.55,1.79,1.1,2.67,1.67h0a60,60,0,0,1,6.76,4.11l.06.05A12.54,12.54,0,0,1,21.14,59,6.91,6.91,0,0,1,23,64a7,7,0,0,1-1,3.5,6.2,6.2,0,0,1-1.58,1.85,1,1,0,0,1-.21.18l-.13.09-.15.1a6.6,6.6,0,0,1-1.8.9l-.27.06A11.42,11.42,0,0,1,15.1,71a9.41,9.41,0,0,1-4.6-1.06h0a1.64,1.64,0,0,1-.38-.16l-.7-.38,0,0h0l-.23-.13-.87-.47A9.17,9.17,0,0,1,7,68a5.08,5.08,0,0,0-1-.57,1.05,1.05,0,0,0-1.23.23c-.27.42-.8,1.19-1.31,2a5.26,5.26,0,0,1-.54.83c-.24.38-.45.72-.59,1a6.29,6.29,0,0,1-.61.91,6.11,6.11,0,0,1-.47.64,9.06,9.06,0,0,0-.89,1.39l-.26.46a1.28,1.28,0,0,0-.12,1,.85.85,0,0,0,.21.32,1.78,1.78,0,0,0,.26.22,38.19,38.19,0,0,0,4.91,2.72,54,54,0,0,0,6.7,2.55h.05a3.17,3.17,0,0,0,.4.14h0a8,8,0,0,0,1.25.21l.56.06a10.69,10.69,0,0,0,1.7.14A7.59,7.59,0,0,0,17.49,82a3.57,3.57,0,0,1,.56-.07,10.18,10.18,0,0,0,2.36-.41l1-.28.69-.2s0,0,.15-.07a11,11,0,0,0,1.05-.34,4.3,4.3,0,0,0,.48-.24c.6-.35,1.17-.65,1.74-.92l.49-.25,0,0,.12-.07a4.87,4.87,0,0,0,.6-.37,5.4,5.4,0,0,0,.91-.76,5,5,0,0,1,.55-.48l.39-.32.09-.08a22.17,22.17,0,0,0,2.08-2.46l.06-.14.12-.15a13.5,13.5,0,0,0,2-3.86,10.35,10.35,0,0,0,.63-4.12C33.58,65.52,33.51,64.63,33.44,63.74Z"/><path class="cls-1" d="M201.1,41.41a4.46,4.46,0,0,0-.81,0l-2.65,0c-1.61,0-3.23,0-4.85,0a2.56,2.56,0,0,0-2.41,1.43,14.26,14.26,0,0,0-1.07,2.62c-.18.59-.43,1.19-.66,1.76l-.31.76c-.39,1-.8,1.93-1.12,2.92s-.66,1.8-1,2.67l-.21.55q-.31.81-.66,1.59c-.27.66-.55,1.31-.8,2-.41,1.11-.91,2.29-1.51,3.59a1.24,1.24,0,0,1-.62.71,1.66,1.66,0,0,1-1.3-1.09c-.43-.9-.9-1.79-1.37-2.68l-.58-1.07-.11-.19-.67-1.25c-.57-1-1.13-2.09-1.68-3.14-.17-.33-.35-.66-.53-1l-.53-.93c-.71-1.34-2.12-4.62-3.08-6.52a3.79,3.79,0,0,0-.29-.57l-.23-.33c-.09-.13-.18-.27-.26-.41a2.61,2.61,0,0,0-2.51-1.43h-.06c-.85,0-1.69,0-2.54.08-1.38.06-2.81.12-4.21.07h-.69a1.47,1.47,0,0,0-1.13.55,1.39,1.39,0,0,0-.19,1.18,3.27,3.27,0,0,0,.31.9l2.75,5,1.23,2.18c.6,1,1.19,2.09,1.77,3.15.18.31.33.63.48,1a10.86,10.86,0,0,0,.75,1.43c.71,1.1,1.33,2.2,2.07,3.52l.37.66c2.11,3.62,3.36,6.31,4.22,7.92h0l.59,1.11h0c.45.87.7,1.4.88,1.82.39.83.75,1.63.87,2a1.77,1.77,0,0,1,0,1.77c-.39,1-.88,2.75-1.4,3.71s-1.79,4.91-2,5.36l-.32.87-.2.52a13.06,13.06,0,0,0-.5,1.41A21.07,21.07,0,0,1,170.55,92a2.6,2.6,0,0,0-.31.78,5.25,5.25,0,0,1-.38,1.2c-.39,1-.72,1.9-1,2.79a2.87,2.87,0,0,0-.08.38c-.15.75,0,1.19.25,1.37s.57.35,2.65.43h0c.57,0,1.14,0,1.69.07h.94c.48,0,.95,0,1.42,0s1.71,0,2.14,0a2.61,2.61,0,0,0,2.71-1.93l.32-.92c.19-.58.39-1.16.61-1.74C184.42,88,187.84,77,189.67,73a35.39,35.39,0,0,0,1.51-3.22l.08-.2.24-.59h0c.31-.8.71-1.78,1.13-2.78a9.06,9.06,0,0,0,.5-1.1c.14-.37.29-.74.44-1.11.49-1.17.93-2.2,1.16-2.77.54-1.36,1.1-3,1.65-4.29.11-.27.22-.54.34-.81a10.21,10.21,0,0,0,.63-1.71,4.72,4.72,0,0,1,.18-.53l.33-.74c.53-1.2,1.06-2.4,1.61-3.58a6.9,6.9,0,0,0,.41-1.18,6.89,6.89,0,0,1,.29-.91l.21-.5a19.29,19.29,0,0,1,1-2.11,6.89,6.89,0,0,0,.67-1.83l.12-.44a.39.39,0,0,0,0-.26A1.22,1.22,0,0,0,201.1,41.41Z"/><path class="cls-1" d="M157.09,75.32a2.07,2.07,0,0,0-.61-1,16.65,16.65,0,0,1-2.38-2.62,8.12,8.12,0,0,0-1.43-1.45,5.23,5.23,0,0,1-.43-.4l-.25-.24a.49.49,0,0,0-.2-.11,1.86,1.86,0,0,0-2,.61,3.41,3.41,0,0,1-1.32.89l-.59.29-.11.06a8.83,8.83,0,0,1-4,1,10.63,10.63,0,0,1-5.95-1.61,9.84,9.84,0,0,1-.82-.56l-.13-.1a11.45,11.45,0,0,1-3.69-5.67,13,13,0,0,1-.09-4.14A11.34,11.34,0,0,1,135,55.37a8.9,8.9,0,0,1,1.4-1.56l.59-.59a5.86,5.86,0,0,1,2.27-1.44,13.66,13.66,0,0,1,6.33-.8,9,9,0,0,1,1.61.35h0l0,0a7.91,7.91,0,0,1,1.2.52,11.64,11.64,0,0,1,2.3,1.18c.42.29,1.24.14,1.9-.84a8.8,8.8,0,0,1,1.11-1.52c1.06-1.4,2.44-3.2,2.69-3.66.36-.68.84-1.24.3-1.61a33.94,33.94,0,0,0-4.58-3,25.62,25.62,0,0,0-4.37-1.2,23.68,23.68,0,0,0-5.72-.43c-3.59.21-2.51.34-5.43,1.07a18.92,18.92,0,0,0-3.77,1.87c-.54.33-1,.7-1.61,1.11A12.69,12.69,0,0,0,129,47a2.58,2.58,0,0,1-.34.32c-.1.09-.2.17-.33.3a10.19,10.19,0,0,0-2.59,3.46,2.53,2.53,0,0,1-.4.66,4.3,4.3,0,0,0-.69,1.37c-.18.61-.39,1.21-.59,1.81-.15.44-.29.87-.43,1.31a11.3,11.3,0,0,0-.38,1.38c-.13.75-.24,1.51-.33,2.27a24.16,24.16,0,0,0,.5,6.58c.16.69.36,1.36.57,2l.15.46a21.29,21.29,0,0,0,2,4,11.5,11.5,0,0,0,.82,1.12l.14.17c.44.54.88,1.08,1.35,1.62h0v0c.31.34.62.69.95,1a16.29,16.29,0,0,0,2.81,2.45,2.12,2.12,0,0,0,.53.43c.42.24.85.45,1.28.65l0,0,.09,0c.56.25,1.12.46,1.65.66a5.93,5.93,0,0,0,.94.26,3.6,3.6,0,0,1,1.16.38,1.07,1.07,0,0,0,.52.12l.76.1a10.94,10.94,0,0,1,1.86.37,4,4,0,0,0,1.06.13h2.21a11.1,11.1,0,0,0,1.41-.07,16.62,16.62,0,0,0,6.09-2.09l.41-.22a6.44,6.44,0,0,0,2.3-1.72l.44-.34,1-.77a2.82,2.82,0,0,0,1.14-1.79A.55.55,0,0,0,157.09,75.32Z"/><path class="cls-1" d="M77.12,58.7c0-.14,0-.26,0-.35,0-.63.07-1.91,0-3.32s0-4.58,0-6,.08-4.55.11-5.84c0-.13,0-.25,0-.37a1.11,1.11,0,0,0-.32-.78,1.26,1.26,0,0,0-.92-.27H73.07c-.2,0-.4,0-.6,0-.84-.08-1.68-.08-2.49-.08l-1.11,0c-.24,0-.47,0-.7,0a1.23,1.23,0,0,0-1.11,1c0,.14-.07.3-.1.46h0a.69.69,0,0,1,0,.13v0c-.06.34-.2.66-.69.49h0L66,43.62l-.65-.21c-.86-.29-1.72-.58-2.59-.82A18.41,18.41,0,0,0,58.18,42c-1,0-2,0-2.88.07A9.83,9.83,0,0,0,51,43.18a6.27,6.27,0,0,1-.74.35A17.06,17.06,0,0,0,44.8,47.3a17.58,17.58,0,0,0-2.86,3.49,12.75,12.75,0,0,1-1.08,1.92,8.15,8.15,0,0,0-1,2.39c-.21.74-.37,1.49-.54,2.23s-.27,1.19-.42,1.78a4.72,4.72,0,0,0-.13,1.28,6.09,6.09,0,0,1-.07.85,13.58,13.58,0,0,0,.38,5.1l.15.76a.33.33,0,0,0,0,.13,5.57,5.57,0,0,1,.44,1.38c.07.27.13.54.21.8l.05.17a5.24,5.24,0,0,0,.93,2,1.26,1.26,0,0,1,.16.33,3.91,3.91,0,0,0,1,1.53l.59.6c.36.38.72.75,1.1,1.1l.18.17a13.68,13.68,0,0,0,1.7,1.41l.35.23a38.54,38.54,0,0,0,3.68,2.21,11.28,11.28,0,0,0,2.86,1l.2,0a10.26,10.26,0,0,1,1.5.36,5.9,5.9,0,0,0,1.83.39c.43,0,.85,0,1.27.06s1.05.08,1.57.08h.24A8.58,8.58,0,0,0,61.08,81a29,29,0,0,0,4.09-1.18l.51-.17c.28-.09.57-.18.85-.3h0c.54-.26,1-.33,1,0s0,.45,0,.67h0v.12h0c0,.1,0,.21,0,.32v0h0a1.51,1.51,0,0,0,.32.87.45.45,0,0,0,.13.11,1.59,1.59,0,0,0,.93.2h.2l6.8-.14a1.82,1.82,0,0,0,.94-.24c.38-.46.19-.91.24-2.16S77,76.35,77,75.23s-.11-3.61,0-5,0-2.75,0-4,0-3.13.09-4.18c0-.73,0-1.93,0-2.82a.86.86,0,0,1,0-.16.76.76,0,0,1,0-.37ZM65.19,68a8.28,8.28,0,0,1-5.62,2.92l-.77.1-.85.11a8.54,8.54,0,0,1-9.13-6.62,5.84,5.84,0,0,1-.2-2.6,2,2,0,0,0,0-.49,8.18,8.18,0,0,1,.92-3.65,9.22,9.22,0,0,1,1.83-2.84c.41-.43.88-.85,1.3-1.21a2.4,2.4,0,0,1,.78-.46l.87-.28q.84-.26,1.65-.54a4.64,4.64,0,0,1,1.6-.28,5.5,5.5,0,0,1,.8,0h.15a12.26,12.26,0,0,1,2.54.44,9.36,9.36,0,0,1,4.68,3.33,8.15,8.15,0,0,1,1.7,5.6v.41a12.53,12.53,0,0,1-.18,2A8.77,8.77,0,0,1,65.19,68Z"/><path class="cls-1" d="M300.33,59.11a8.09,8.09,0,0,0-.37-2c0-.19-.08-.38-.14-.58l-.15-.41c-.06-.18-.12-.35-.17-.53l0,0c-.05-.17-.11-.35-.15-.53a17.14,17.14,0,0,0-1.59-3.91,5.11,5.11,0,0,0-1-1.28,5.34,5.34,0,0,1-.6-.71,14.69,14.69,0,0,0-2.24-2.44l-.48-.39c-.18-.14-.36-.28-.55-.41l-.27-.19-.4-.29a35.26,35.26,0,0,0-3.33-1.85l-.23-.09L287.52,43l-.27-.1c-.26-.09-.51-.2-.76-.3a16.52,16.52,0,0,0-5.84-.93,17.44,17.44,0,0,0-3.32.31.94.94,0,0,1-.82.27,1,1,0,0,0-.25,0A17.34,17.34,0,0,0,271.64,44,19.24,19.24,0,0,0,267,47.56a8.85,8.85,0,0,0-1.2,1.54l-.25.4c-.23.39-.46.77-.71,1.14a12.17,12.17,0,0,0-.63,1.11h0l-.05.11a10.73,10.73,0,0,0-.45,1.11,7.06,7.06,0,0,1-.5,1.2,15.82,15.82,0,0,0-1,3.38c-.05,1.07-.1,1.86-.14,2.52a3.2,3.2,0,0,1,0,.79,12.4,12.4,0,0,0,.34,3.42c.56,2.65.42,2.94,1,4.22s.23,1.42,1.43,3.11l.64.89a5.66,5.66,0,0,1,.52.71c.29.4.54.73.77,1h0a3.16,3.16,0,0,0,.44.45,11.86,11.86,0,0,0,2,1.61,9.33,9.33,0,0,1,.78.58,1.55,1.55,0,0,0,.23.21l.59.4a19.26,19.26,0,0,0,1.9,1.22,8.58,8.58,0,0,0,1.71.68h0a14.47,14.47,0,0,0,2.84.74l.15,0c.3,0,.61.07.92.09h.13l.81.09h0a18.07,18.07,0,0,0,5.76-.42l.14,0h0a26.72,26.72,0,0,0,3.3-1c.38-.14.76-.3,1.13-.46l.11,0,.06,0,.2-.09a9.16,9.16,0,0,0,2.27-1.37h0c1-.83,1.8-1.57,2.66-2.36l.12-.12.16-.15a18.8,18.8,0,0,0,2.93-4.36,4.55,4.55,0,0,0,.5-.84c.13-.27.23-.56.41-1s.34-.84.5-1.28a4,4,0,0,0,.28-.82c0-.08,0-.16,0-.22.09-.44.25-.95.35-1.56a18.54,18.54,0,0,0,.21-2.46A15.43,15.43,0,0,0,300.33,59.11ZM281.21,69.79a11.6,11.6,0,0,1-3.09-.52,8.57,8.57,0,0,1-2.49-1,9.86,9.86,0,0,1-1.83-1.59.74.74,0,0,1-.12-.16c-.16-.39-.35-.78-.54-1.17a7.62,7.62,0,0,1-.88-2.51,9.7,9.7,0,0,1,.93-5.86l.11-.22A10.33,10.33,0,0,1,276.68,53a8,8,0,0,1,3.76-1.13,10.44,10.44,0,0,1,2.78.3,8.62,8.62,0,0,1,5.65,4.26,9.71,9.71,0,0,1,1.37,4.46,5.36,5.36,0,0,1-.36,2.72c-.12.26-.23.51-.34.77a8,8,0,0,1-.74,1.46,8.41,8.41,0,0,1-7.42,3.93Z"/><path class="cls-1" d="M344,77.2l0-.26c0-2.23,0-5.09,0-7.32,0-.71-.06-1.43-.07-2.14,0-.4,0-.79,0-1.16h0s-.11-2.76,0-7.35a17.9,17.9,0,0,0-1.63-8.63A17.39,17.39,0,0,0,341,48l-.23-.32a10.31,10.31,0,0,0-2.56-2.89,2.66,2.66,0,0,1-.23-.24A6.54,6.54,0,0,0,335.72,43a26.46,26.46,0,0,0-3.14-1.34,9.89,9.89,0,0,0-2.42-.63,14.88,14.88,0,0,1-2.19-.34,6.46,6.46,0,0,0-2.34-.13A12.24,12.24,0,0,0,319.06,42a14.33,14.33,0,0,0-1.61.82l-.14.06a15.46,15.46,0,0,0-4.15,2.9h0a16.34,16.34,0,0,0-1.65,1.68,29.22,29.22,0,0,0-2.77,4.06,8.73,8.73,0,0,0-.95,2.22,2,2,0,0,1-.18.49,11.78,11.78,0,0,0-.92,2.94l-.05.21a23.46,23.46,0,0,0-.44,3.23l0,.21a9.73,9.73,0,0,0,.09,3.13,16.65,16.65,0,0,1,.35,1.92,7.27,7.27,0,0,0,.37,1.56l0,.1a6,6,0,0,0,.7,1.36A9.54,9.54,0,0,1,308.81,71c.23.38.48.76.75,1.17.46.46.89.92,1.3,1.39,1,.92,2.21,1.9,2.93,2.47a20.41,20.41,0,0,0,4,2.22,18.08,18.08,0,0,0,4.87,1.3l.79.07H324a12,12,0,0,0,4.81-.83,12.37,12.37,0,0,0,3-1.49c.49-.39.67-.41.75-.35s.16.17.22.68.21,2.64.21,3.49,0,3.73-.8,4.75c-.14.18-.28.35-.41.53a6.32,6.32,0,0,1-3,2.16h0l-.51.2a14.1,14.1,0,0,1-5.89.17,27.47,27.47,0,0,1-5.74-2.81l-.42-.32h0a3.12,3.12,0,0,0-2-.79,1.21,1.21,0,0,0-.25.08h0l-.08,0a2.58,2.58,0,0,0-.34.32h0a3.68,3.68,0,0,0-.3.39,18.1,18.1,0,0,0-1.4,2.32c-.69,1.37-1.3,2.62-1.84,3.91a1.62,1.62,0,0,0,.37,1.93l.15.14a6.48,6.48,0,0,0,1.68,1.31,4,4,0,0,1,.77.5,13.84,13.84,0,0,0,2.8,1.55c.59.26,1.2.49,1.81.72a23.39,23.39,0,0,0,7.06,1.28,28.85,28.85,0,0,0,4.08.06l.27,0,.49-.09.33-.07a3,3,0,0,0,.7-.21h0a23.29,23.29,0,0,0,6.8-3.25,16.75,16.75,0,0,0,4.16-4.77,2.92,2.92,0,0,1,.14-.31c.1-.24.44-1.06,1.24-3.32a23.27,23.27,0,0,0,1.07-6.07c0-.37,0-.74.06-1.12s0-1.21,0-2.38l0-.5a.35.35,0,0,1,0-.14S344,77.2,344,77.2ZM333.77,61a9.51,9.51,0,0,1-.45,2,13.71,13.71,0,0,1-1.09,2.41,6.84,6.84,0,0,1-2.11,2.08l-1.09.72-.06,0a4.46,4.46,0,0,1-.63.35l-.26,0a9.43,9.43,0,0,1-.93.25l-.1.06-.5,0h0l-.3,0a7.39,7.39,0,0,1-4.13-.66h0l-.85-.37-.27-.12a2.15,2.15,0,0,1-.22-.11,5.1,5.1,0,0,1-.88-.57,10.1,10.1,0,0,1-1.56-1.38l-.09,0a8.27,8.27,0,0,1-.51-.66,2.4,2.4,0,0,1-.11-.23l-.08-.15c-.1-.21-.2-.42-.32-.62a5.83,5.83,0,0,1-.7-2.76l-.06-1.18a8.71,8.71,0,0,1,5.87-8.53,15.09,15.09,0,0,1,1.9-.48,8.13,8.13,0,0,1,3.82.09,2.83,2.83,0,0,1,.41.14,5.48,5.48,0,0,0,.56.23,6.05,6.05,0,0,1,2.74,2.43A10.44,10.44,0,0,1,333.77,61Z"/><path class="cls-1" d="M256.48,50.87a10.15,10.15,0,0,1-.07-1.1,21.34,21.34,0,0,0-.37-4.93,4.78,4.78,0,0,1,0-.57v-.16a6.73,6.73,0,0,0-.33-1.92,4.42,4.42,0,0,1-.14-.52l-.1-.35c-.16-.58-.28-1.18-.4-1.78s-.28-1.36-.48-2A12.32,12.32,0,0,0,253,33.86l-.5-.72c-.39-.57-.77-1.13-1.19-1.69a10.51,10.51,0,0,0-1.9-2l-.09-.07a2.22,2.22,0,0,1-.47-.43,2.3,2.3,0,0,0-1.15-1s-.06,0-.12-.1a5.14,5.14,0,0,0-1.44-1l-.14-.07-.52-.26a9.22,9.22,0,0,1-1.2-.66,5.8,5.8,0,0,0-1.17-.58l-.54-.19c-.79-.27-1.6-.54-2.44-.76h0A49.85,49.85,0,0,0,232.53,23c-.59-.05-1.26-.09-2-.13-.43,0-1.22-.06-1.61-.06l-6.47-.08c-.74,0-6.64,0-7.35.07a2.46,2.46,0,0,0-.58.19l-.12.09a1.75,1.75,0,0,0-.43,1.32c0,.55,0,1.1,0,1.65s0,1,0,1.43c0,2.37,0,4,.1,4.38a5.44,5.44,0,0,0,.2,1.14,2.33,2.33,0,0,0,.26.38.59.59,0,0,0,.18.13,5.36,5.36,0,0,0,2.36.24l.8,0c.29,0,.57.41.63.68a7.92,7.92,0,0,1,.13,1.36v7.57q0,5.23,0,10.47c0,2,0,4,0,6,0,4,.05,8.06-.13,12.09a17.14,17.14,0,0,0,.07,2c0,.59.09,1.21.07,1.81s0,1.46,0,2.19,0,1.47,0,2.2a1.9,1.9,0,0,0,.54,1.39,2,2,0,0,0,1.35.56c.21,0,.42,0,.63,0h.54a5.51,5.51,0,0,0,.81-.05,21,21,0,0,1,3.31-.11c1.26,0,2.54-.06,3.78-.12.66,0,1.32-.08,2-.1a1.06,1.06,0,0,0,.24,0,15.42,15.42,0,0,1,2.4-.32c.61-.05,1.22-.1,1.83-.2l1.24-.19a24,24,0,0,0,3.84-.79l.38-.12A10.81,10.81,0,0,0,244.2,79c.42-.26.86-.48,1.3-.7l.52-.26a11.49,11.49,0,0,0,1.45-.93A7.31,7.31,0,0,0,249,75.73a2.14,2.14,0,0,1,.44-.39l.16-.11A7.37,7.37,0,0,0,251,73.82c.66-.87,1.33-1.83,2.07-2.93a11,11,0,0,0,1.25-2.67h0a35.67,35.67,0,0,0,1.94-9.43h0c.07-.58.11-1.2.13-1.9,0-1.16.08-2.32.12-3.48l.05-1.17A10.3,10.3,0,0,0,256.48,50.87Zm-9.93,1.62c0,.58,0,1.17,0,1.75,0,.19,0,.38,0,.58a39.4,39.4,0,0,1-.34,4.06,12.21,12.21,0,0,1-1.33,4.62,9.25,9.25,0,0,1-2.12,3.21,12.54,12.54,0,0,1-1.21,1.12l-.12.13a3.78,3.78,0,0,1-1.19.78l-.14.07a10.58,10.58,0,0,1-1.46.74h0a8.92,8.92,0,0,1-2.93.82c-.34,0-.67.1-1,.17a10.28,10.28,0,0,1-1.31.18h-.57a7.26,7.26,0,0,0-1.71.14,1.76,1.76,0,0,1-.31,0l-.53,0c-.51-.06-1.48-.79-1.54-1.39a20.29,20.29,0,0,1-.1-2.06c0-.64,0-1.28,0-1.92,0-1.12,0-2.24,0-3.36.09-2.08.13-3.8.13-5.41,0-.85,0-1.7,0-2.55V49.93c0-1.57,0-3.13,0-4.7,0-.46,0-.92-.06-1.37s-.05-.79-.05-1.18c0-.94,0-1.87,0-2.8s0-1.55,0-2.32.06-1.69.13-2.52a.88.88,0,0,1,.67-.88h.11a4.69,4.69,0,0,0,1-.11,1.37,1.37,0,0,1,.53,0,8.93,8.93,0,0,0,1.61.12,12.41,12.41,0,0,1,1.24.06c.34,0,.68.12,1,.18s.88.17,1.33.22a8.18,8.18,0,0,1,3,1.07c3.14,1.36,4.08,2.5,4.91,4.73l0,.08a4.68,4.68,0,0,1,.18.48,14.05,14.05,0,0,1,1.26,4.13h0a12.21,12.21,0,0,1,.29,1.56,19.69,19.69,0,0,1,.53,3.39h0c.08.72.13,1.45.15,2.18h0Z"/></g></g></svg>