<svg xmlns="http://www.w3.org/2000/svg" viewBox="0 0 226.77 134.92"><defs><style>.cls-1{fill:#231815;}</style></defs><title>アセット 2</title><g id="レイヤー_2" data-name="レイヤー 2"><g id="レイヤー_2-2" data-name="レイヤー 2"><path class="cls-1" d="M112.9,30.59c0-1.05,0-1.73,0-2.53a9.12,9.12,0,0,1,0-1.3c0-1,0-2.08,0-3.09,0-.63,0-1.26,0-1.89a2.52,2.52,0,0,0-.62-1.81.45.45,0,0,0-.33-.15h0c-1.1,0-2.27,0-3.67,0q-.48,0-1,0l-.86,0h-.77a7.72,7.72,0,0,1-1.18,0,1.45,1.45,0,0,0-1.09.32,1.81,1.81,0,0,0-.66,1.18,3.85,3.85,0,0,0,0,.68l0,1c0,.54.06,1.07.08,1.6s0,1.05,0,1.58c0,.81,0,1.65.1,2.48h0c0,6.33.11,5.6.06,7.42s0,2.7-.07,3.68-.13,2-.13,2h0c0,.12,0,.24,0,.34v.19c0,.22,0,.45,0,.67a6.9,6.9,0,0,1-.31,2,4.55,4.55,0,0,1-3.26,3.08,11.73,11.73,0,0,1-4.08.32,6.94,6.94,0,0,1-2.27-.63,2.73,2.73,0,0,1-.6-.29,3.25,3.25,0,0,1-.77-.55,4.92,4.92,0,0,1-2.23-4.26c-.08-1-.12-1.94-.16-2.9l0-.74c-.06-1.38-.06-2.82,0-4.41,0-.44,0-.88,0-1.32a12.12,12.12,0,0,1,0-1.59c0-.19,0-.39,0-.59v0a.45.45,0,0,1,0-.11v-.17c.06-1.35.12-4.11.06-6h0c.08-1.16.12-2.32.11-3.45v-.12a1.65,1.65,0,0,0-.22-1,.55.55,0,0,0-.2-.17.83.83,0,0,0-.41-.18c-.42,0-.85-.06-1.26-.07L81,19.7a5.08,5.08,0,0,0-.86.12,1.12,1.12,0,0,0-.84.88,1.41,1.41,0,0,0-.07.72,3.49,3.49,0,0,1,0,.92,5.23,5.23,0,0,0,0,.56c0,.33,0,.65,0,1a19.28,19.28,0,0,1,0,2.28,16.55,16.55,0,0,0,0,2.1c0,1.42-.05,2.38,0,4.06,0,2.38-.08,3.35-.08,3.83a2.57,2.57,0,0,0,0,.48c0,.13,0,.25,0,.37h0c0,1.49.14,4.08.1,5.88a17.08,17.08,0,0,0,1.39,6.85,12.73,12.73,0,0,0,5.78,6,14.31,14.31,0,0,0,5.69,2.17l.17,0,1.61.19a27.73,27.73,0,0,0,3,.13,7.09,7.09,0,0,0,1.64-.1l.13,0a5.58,5.58,0,0,1,1.23-.19,5,5,0,0,0,1.67-.36c.21-.08.41-.15.62-.21l.53-.18.11,0a4.43,4.43,0,0,0,.68-.28l.36-.19c.57-.31,1.15-.62,1.71-1,.73-.47,1.43-1,2-1.45.16-.13.32-.28.48-.42,1.72-1.79,3.11-3.05,3.77-6a35.86,35.86,0,0,0,.78-6.82h0a8.07,8.07,0,0,1,0-1.19,23.75,23.75,0,0,0,.11-2.78,14.07,14.07,0,0,1,0-2.89C113.12,32.74,112.82,32.15,112.9,30.59Z"/><path class="cls-1" d="M32,40.83c0-.25,0-.5-.05-.74s0-.67-.07-1-.08-.56-.13-.83a.71.71,0,0,0,0-.2l0-.16c0-.15-.07-.3-.11-.44s-.13-.52-.22-.8c0-.09-.05-.18-.08-.27a16.39,16.39,0,0,0-1.3-3,15,15,0,0,0-1.4-2h0a22.07,22.07,0,0,0-3.36-3.62h0a16.73,16.73,0,0,0-2.08-1.54l0,0c-1-.67-2-1.28-2.95-1.83l-.33-.17L17.88,23h0a14.09,14.09,0,0,0-1.79-1.22,1.7,1.7,0,0,1-.34-.29,2.25,2.25,0,0,0-.52-.43,6.27,6.27,0,0,1-1-.7l-.24-.2a5.4,5.4,0,0,1-1.57-2.2,4.42,4.42,0,0,1-.35-2.25,10.81,10.81,0,0,1,.41-1.88,4.63,4.63,0,0,1,2.74-3c.22-.1.44-.17.66-.25a5.2,5.2,0,0,1,3.46.17c1.53.64,3,1.44,4.37,2.16a6.14,6.14,0,0,0,1.66.7.37.37,0,0,0,.18,0,1.28,1.28,0,0,0,.81-.54l.22-.29c.19-.25.39-.51.57-.77l.6-.89A20.74,20.74,0,0,1,29,9.34a9.15,9.15,0,0,0,1.12-1.88L30.37,7a1.39,1.39,0,0,0,.07-1.22.42.42,0,0,0-.09-.14,11,11,0,0,0-2.29-1.76l-.17-.1a4,4,0,0,1-.51-.33A26.36,26.36,0,0,0,22.8,1.12,13.54,13.54,0,0,0,16.61,0l-.85.08A14.61,14.61,0,0,0,11.2,1.36l-.27.13a7.4,7.4,0,0,1-.87.38,6.09,6.09,0,0,0-2.31,1.4l-.16.16A22.63,22.63,0,0,1,5.72,5.09a2.06,2.06,0,0,0-.44.51C4.82,6.31,4.37,7,3.92,7.73a13.62,13.62,0,0,0-1.87,4.56L2,12.62a7.65,7.65,0,0,1-.18.83,4.2,4.2,0,0,0-.07,1.64c0,.13,0,.26.05.39a5,5,0,0,1,.07.83,5,5,0,0,0,.25,2,12.11,12.11,0,0,1,.38,1.44,9.51,9.51,0,0,0,.89,2.63,5,5,0,0,0,1.27,2.42l.12.13a2.55,2.55,0,0,1,.31.4,3.83,3.83,0,0,0,1.41,1.6,1,1,0,0,1,.12.14,2.4,2.4,0,0,0,.21.23l.49.48a7.72,7.72,0,0,0,1.4,1.19l1.17.72q1.29.78,2.55,1.59h0a56.91,56.91,0,0,1,6.44,3.91l.05.06a9.81,9.81,0,0,1,1.31,1.13A6.63,6.63,0,0,1,22,41.11a6.89,6.89,0,0,1-1,3.34,6,6,0,0,1-1.5,1.75.9.9,0,0,1-.2.18l-.13.08-.15.1a5.82,5.82,0,0,1-1.71.85,2.27,2.27,0,0,1-.25.06,11,11,0,0,1-2.62.26,9,9,0,0,1-4.37-1h0a1.2,1.2,0,0,1-.35-.16l-.67-.36,0,0H9l-.22-.12L8,45.61a7.55,7.55,0,0,1-1.2-.73,5.48,5.48,0,0,0-.9-.53,1,1,0,0,0-1.17.22c-.26.4-.77,1.13-1.25,1.87a6.41,6.41,0,0,1-.51.78c-.23.36-.43.69-.56.94a6.58,6.58,0,0,1-.59.86,5.58,5.58,0,0,1-.45.61A9,9,0,0,0,.49,51l-.24.43a1.23,1.23,0,0,0-.12.92.78.78,0,0,0,.21.3,1,1,0,0,0,.24.21,36,36,0,0,0,4.68,2.6,52.6,52.6,0,0,0,6.38,2.42h0l.39.12h0a7.18,7.18,0,0,0,1.19.19l.54.07a10.84,10.84,0,0,0,1.61.13,6.86,6.86,0,0,0,1.31-.12,5,5,0,0,1,.54-.07,9.09,9.09,0,0,0,2.24-.39l1-.26.67-.19s0,0,.14-.06c.43-.13.73-.23,1-.33l.47-.23c.57-.34,1.11-.62,1.65-.88l.47-.24.05,0,.11-.07a5.84,5.84,0,0,0,.57-.35,4.62,4.62,0,0,0,.87-.73A4.41,4.41,0,0,1,27,54l.37-.31.09-.07a22.3,22.3,0,0,0,2-2.35l.06-.13.11-.14a12.89,12.89,0,0,0,1.89-3.68,10,10,0,0,0,.6-3.92C32.08,42.52,32,41.67,32,40.83Z"/><path class="cls-1" d="M191.64,19.55a4.93,4.93,0,0,0-.76-.05l-2.53,0q-2.31,0-4.62,0a2.46,2.46,0,0,0-2.3,1.37,15.13,15.13,0,0,0-1,2.49,17,17,0,0,1-.63,1.68l-.29.72c-.37.9-.76,1.84-1.07,2.78s-.62,1.72-.95,2.55l-.21.52c-.2.51-.41,1-.62,1.52s-.53,1.24-.76,1.87c-.4,1.06-.87,2.18-1.44,3.42a1.23,1.23,0,0,1-.59.68,1.59,1.59,0,0,1-1.24-1c-.41-.86-.86-1.71-1.31-2.55l-.55-1a1,1,0,0,0-.11-.17L170,33.17q-.81-1.5-1.59-3l-.51-.93-.5-.89c-.69-1.27-2-4.39-2.94-6.21a3.91,3.91,0,0,0-.28-.54l-.21-.31a4.25,4.25,0,0,1-.25-.39,2.49,2.49,0,0,0-2.39-1.37h-.06c-.81,0-1.61,0-2.42.08-1.31.06-2.68.12-4,.06h-.65a1.39,1.39,0,0,0-1.08.53,1.34,1.34,0,0,0-.19,1.12,3.09,3.09,0,0,0,.31.86q1.29,2.37,2.61,4.72c.39.69.78,1.39,1.18,2.08.56,1,1.13,2,1.68,3,.17.3.31.6.45.91a13.69,13.69,0,0,0,.72,1.36c.67,1.05,1.27,2.1,2,3.36l.36.62c2,3.45,3.19,6,4,7.54h0l.55,1.05h0v0c.43.82.67,1.33.83,1.72.37.8.71,1.56.83,1.88a1.7,1.7,0,0,1,0,1.69c-.36.91-.84,2.61-1.33,3.53s-1.71,4.68-1.86,5.1-.2.56-.31.84l-.19.49c-.17.44-.34.88-.47,1.35a20,20,0,0,1-1.73,4.3,2.12,2.12,0,0,0-.29.74,5.85,5.85,0,0,1-.37,1.14c-.38.94-.69,1.81-.94,2.66a1.82,1.82,0,0,0-.08.36c-.14.72,0,1.14.24,1.31s.54.33,2.53.41h0c.54,0,1.08.05,1.62.06h.89q.68,0,1.35,0l2,0a2.49,2.49,0,0,0,2.58-1.84l.3-.87c.19-.56.38-1.11.58-1.67,2.75-6.12,6-16.54,7.75-20.36a32.36,32.36,0,0,0,1.43-3.08l.08-.18c.08-.19.16-.38.23-.57h0c.3-.76.68-1.7,1.08-2.65a7.63,7.63,0,0,0,.47-1c.13-.35.28-.7.42-1,.47-1.12.89-2.09,1.11-2.64.51-1.3,1-2.84,1.57-4.08.1-.27.21-.52.32-.78a10.17,10.17,0,0,0,.61-1.63,2.91,2.91,0,0,1,.16-.5l.32-.71c.5-1.14,1-2.28,1.54-3.41a7,7,0,0,0,.38-1.12,6.78,6.78,0,0,1,.28-.87l.2-.48a20.27,20.27,0,0,1,.94-2,6.91,6.91,0,0,0,.63-1.74l.12-.42a.53.53,0,0,0,0-.25A1.17,1.17,0,0,0,191.64,19.55Z"/><path class="cls-1" d="M149.72,51.85a1.87,1.87,0,0,0-.57-1,16,16,0,0,1-2.28-2.49A7.09,7.09,0,0,0,145.51,47c-.14-.11-.26-.24-.41-.38l-.23-.23a.44.44,0,0,0-.19-.1,1.78,1.78,0,0,0-1.9.58,3.33,3.33,0,0,1-1.26.85c-.19.08-.37.18-.55.27l-.11.06a8.45,8.45,0,0,1-3.81,1,10.18,10.18,0,0,1-5.67-1.53q-.4-.26-.78-.54l-.12-.09A10.85,10.85,0,0,1,127,41.48a12.53,12.53,0,0,1-.09-3.93,10.87,10.87,0,0,1,1.85-4.7,8.83,8.83,0,0,1,1.33-1.49l.57-.56a5.49,5.49,0,0,1,2.16-1.37,12.91,12.91,0,0,1,6-.76,7.42,7.42,0,0,1,1.53.34h0l0,0a8.16,8.16,0,0,1,1.14.49,10.66,10.66,0,0,1,2.19,1.13c.41.27,1.18.14,1.82-.8a7.27,7.27,0,0,1,1.06-1.45c1-1.33,2.31-3.05,2.55-3.49.35-.64.8-1.18.29-1.53a32.12,32.12,0,0,0-4.36-2.85,24,24,0,0,0-4.17-1.15,22.86,22.86,0,0,0-5.44-.41c-3.43.2-2.39.33-5.17,1a17.41,17.41,0,0,0-3.59,1.78c-.52.32-1,.67-1.54,1.06a12.15,12.15,0,0,0-2.25,2.07,2.27,2.27,0,0,1-.32.3l-.32.28a9.88,9.88,0,0,0-2.47,3.31,2.2,2.2,0,0,1-.37.62,4.08,4.08,0,0,0-.66,1.3c-.18.58-.37,1.16-.57,1.73s-.27.83-.41,1.24a10.28,10.28,0,0,0-.35,1.32c-.13.72-.24,1.44-.32,2.16a23.53,23.53,0,0,0,.47,6.28c.15.65.35,1.28.55,1.9,0,.14.09.29.14.43a21.12,21.12,0,0,0,1.93,3.87c.25.36.51.72.78,1.06l.14.17c.42.5.84,1,1.28,1.53h0l0,0c.29.33.59.66.9,1A15.39,15.39,0,0,0,126,55.73a2.13,2.13,0,0,0,.51.41,11.72,11.72,0,0,0,1.23.61l0,0,.09,0c.53.23,1.06.44,1.57.63a6.88,6.88,0,0,0,.89.24,3.62,3.62,0,0,1,1.11.36,1,1,0,0,0,.5.11l.71.11a9.2,9.2,0,0,1,1.78.35,4,4,0,0,0,1,.12h2.1a11.91,11.91,0,0,0,1.34-.06,16,16,0,0,0,5.81-2l.39-.21a6.16,6.16,0,0,0,2.19-1.64l.42-.32.95-.73a2.65,2.65,0,0,0,1.09-1.71A.38.38,0,0,0,149.72,51.85Z"/><path class="cls-1" d="M73.56,36v-.33c0-.6.07-1.82,0-3.17s0-4.35,0-5.75.08-4.33.11-5.56l0-.35a1.1,1.1,0,0,0-.3-.75,1.27,1.27,0,0,0-.89-.25H69.7a5.61,5.61,0,0,1-.58,0,23.56,23.56,0,0,0-2.37-.08l-1,0-.67,0a1.16,1.16,0,0,0-1.06.92c0,.13-.07.28-.1.43h0s0,.08,0,.12v0c-.06.33-.19.64-.65.47h0a1.28,1.28,0,0,0-.24-.11l-.61-.21c-.82-.27-1.65-.54-2.48-.78a17.66,17.66,0,0,0-4.32-.6c-.93,0-1.85,0-2.74.06a9.45,9.45,0,0,0-4.12,1.11,5.6,5.6,0,0,1-.7.33,16.22,16.22,0,0,0-5.19,3.6A16.42,16.42,0,0,0,40,28.49a11.46,11.46,0,0,1-1,1.82,7.86,7.86,0,0,0-1,2.29c-.19.7-.35,1.41-.51,2.12s-.26,1.13-.4,1.69A5.17,5.17,0,0,0,37,37.63a5.52,5.52,0,0,1-.06.81,12.94,12.94,0,0,0,.36,4.86l.14.72a.56.56,0,0,0,0,.12,5.45,5.45,0,0,1,.42,1.33c.07.25.13.51.2.76l0,.15a4.9,4.9,0,0,0,.88,1.9.88.88,0,0,1,.16.31,3.64,3.64,0,0,0,1,1.47c.19.18.37.38.56.57.34.35.68.71,1.05,1l.17.16a11.77,11.77,0,0,0,1.62,1.34l.33.23a37,37,0,0,0,3.51,2.1,10.56,10.56,0,0,0,2.72,1l.19,0a9.32,9.32,0,0,1,1.43.34,5.73,5.73,0,0,0,1.75.37l1.2.06c.5,0,1,.08,1.5.07h.22a9.71,9.71,0,0,0,1.85-.13,27.89,27.89,0,0,0,3.9-1.13l.49-.16c.26-.09.54-.18.8-.29h0c.52-.25.93-.31.95,0s0,.43,0,.64h0v.11h0c0,.1,0,.2,0,.31v0h0a1.64,1.64,0,0,0,.31.84l.12.1a1.55,1.55,0,0,0,.89.19H66l6.48-.14a1.62,1.62,0,0,0,.89-.22c.37-.44.18-.87.23-2.06s-.08-2.65-.08-3.73-.1-3.43,0-4.74,0-2.62,0-3.78,0-3,.08-4c0-.69,0-1.84,0-2.69,0,0,0-.1,0-.15a1,1,0,0,1,0-.35A.09.09,0,0,1,73.56,36ZM62.19,44.83a7.91,7.91,0,0,1-5.36,2.78l-.73.1c-.27,0-.54.08-.81.1a8.14,8.14,0,0,1-8.7-6.3A5.75,5.75,0,0,1,46.4,39a1.75,1.75,0,0,0,0-.46,8,8,0,0,1,.88-3.49,8.75,8.75,0,0,1,1.74-2.69c.4-.42.85-.81,1.24-1.16a2.21,2.21,0,0,1,.75-.44l.83-.26c.52-.17,1.05-.33,1.57-.52A4.66,4.66,0,0,1,55,29.74a6.56,6.56,0,0,1,.76,0h.15a11.79,11.79,0,0,1,2.41.42,8.88,8.88,0,0,1,4.46,3.17,7.78,7.78,0,0,1,1.62,5.34v.39A12.74,12.74,0,0,1,64.18,41,8.44,8.44,0,0,1,62.19,44.83Z"/><path class="cls-1" d="M82.22,97.28a7.53,7.53,0,0,0-.35-1.89c0-.18-.07-.36-.13-.55l-.14-.39-.17-.51v0a4.91,4.91,0,0,1-.15-.51,16.11,16.11,0,0,0-1.51-3.72,4.67,4.67,0,0,0-.92-1.22,5.64,5.64,0,0,1-.56-.68,14.54,14.54,0,0,0-2.14-2.32l-.46-.37-.52-.4-.26-.18-.38-.27a34.1,34.1,0,0,0-3.17-1.76l-.22-.09L70,82l-.25-.1L69,81.59a15.51,15.51,0,0,0-5.56-.88,16,16,0,0,0-3.16.29.9.9,0,0,1-.79.25H59.3a16.56,16.56,0,0,0-4.4,1.67,18.19,18.19,0,0,0-4.42,3.37,9.14,9.14,0,0,0-1.14,1.46c-.07.13-.15.26-.23.39-.22.36-.44.73-.68,1.08a10,10,0,0,0-.6,1.06h0l0,.1a9.07,9.07,0,0,0-.44,1.06,6.35,6.35,0,0,1-.47,1.14A15.07,15.07,0,0,0,46,95.79c0,1-.1,1.78-.14,2.4a3.48,3.48,0,0,1,0,.76,11.92,11.92,0,0,0,.33,3.25c.53,2.53.4,2.8,1,4s.21,1.34,1.36,3L49,110a4.38,4.38,0,0,1,.49.68c.28.38.52.69.74.94h0a4.37,4.37,0,0,0,.42.43,11.84,11.84,0,0,0,1.93,1.54,7.74,7.74,0,0,1,.75.55,1.34,1.34,0,0,0,.21.2l.56.38A20.7,20.7,0,0,0,56,115.92a9.39,9.39,0,0,0,1.63.65h0a12.91,12.91,0,0,0,2.71.71l.15,0a8,8,0,0,0,.87.08h.12l.78.09h0a17.21,17.21,0,0,0,5.49-.4l.13,0h0a26.92,26.92,0,0,0,3.15-1c.36-.13.72-.28,1.08-.44l.1,0,.06,0,.18-.09a8.54,8.54,0,0,0,2.17-1.31h0c1-.79,1.72-1.49,2.54-2.25l.12-.11.15-.14a18.27,18.27,0,0,0,2.79-4.15,4.43,4.43,0,0,0,.47-.8c.13-.26.22-.54.4-1s.32-.79.47-1.21a2.82,2.82,0,0,0,.26-.79,1.36,1.36,0,0,0,.06-.2c.08-.43.23-.91.33-1.49a18.78,18.78,0,0,0,.2-2.34A14.06,14.06,0,0,0,82.22,97.28ZM64,107.45a11.2,11.2,0,0,1-2.95-.49,8.3,8.3,0,0,1-2.37-1A10,10,0,0,1,57,104.48s-.1-.12-.11-.15c-.15-.38-.33-.75-.51-1.12a7.13,7.13,0,0,1-.84-2.39,9.31,9.31,0,0,1,.88-5.58l.11-.21a9.72,9.72,0,0,1,3.22-3.55,7.6,7.6,0,0,1,3.58-1.08,10.71,10.71,0,0,1,2.65.28,8.21,8.21,0,0,1,5.38,4.06A9.35,9.35,0,0,1,72.61,99a5,5,0,0,1-.34,2.58c-.11.25-.22.49-.32.74a9,9,0,0,1-.7,1.39,8,8,0,0,1-7.07,3.74Z"/><path class="cls-1" d="M123.83,113.55l0-.25c0-2.12,0-4.84,0-7,0-.68,0-1.36-.06-2v-1.11h0s-.1-2.62,0-7A17,17,0,0,0,122.17,88a15.26,15.26,0,0,0-1.26-2.23l-.21-.31a9.64,9.64,0,0,0-2.44-2.75,1.61,1.61,0,0,1-.22-.23,6.44,6.44,0,0,0-2.1-1.54,25.31,25.31,0,0,0-3-1.26,9.69,9.69,0,0,0-2.31-.61,14.78,14.78,0,0,1-2.08-.32,6.09,6.09,0,0,0-2.23-.13A11.74,11.74,0,0,0,100.06,80a15.73,15.73,0,0,0-1.53.78l-.13.06a14.78,14.78,0,0,0-4,2.77h0a14.81,14.81,0,0,0-1.57,1.6,28.14,28.14,0,0,0-2.64,3.86,8.11,8.11,0,0,0-.91,2.12,1.81,1.81,0,0,1-.18.46,12.08,12.08,0,0,0-.87,2.8l0,.21a23.94,23.94,0,0,0-.42,3.07v.2a9.09,9.09,0,0,0,.09,3,18.43,18.43,0,0,1,.33,1.83,7.39,7.39,0,0,0,.34,1.49s0,.06,0,.09a5.88,5.88,0,0,0,.66,1.3,8.87,8.87,0,0,1,1,2c.21.35.45.72.71,1.11.44.44.85.88,1.24,1.33.93.87,2.1,1.81,2.79,2.35a19.06,19.06,0,0,0,3.81,2.11,17.06,17.06,0,0,0,4.63,1.24l.76.07h.49a13.63,13.63,0,0,0,7.42-2.21c.47-.38.64-.39.72-.33s.15.15.21.64.19,2.51.19,3.32,0,3.56-.76,4.53c-.13.17-.26.33-.38.51a6.07,6.07,0,0,1-2.82,2h0l-.49.19a13.26,13.26,0,0,1-5.61.16,25.78,25.78,0,0,1-5.46-2.67l-.4-.3h0a3,3,0,0,0-1.88-.76,1.13,1.13,0,0,0-.24.08h0l-.08.05a1.83,1.83,0,0,0-.32.3h0a3.37,3.37,0,0,0-.29.37A17.47,17.47,0,0,0,93.18,124c-.65,1.31-1.24,2.49-1.75,3.72a1.53,1.53,0,0,0,.35,1.84l.14.13A5.93,5.93,0,0,0,93.53,131a4.09,4.09,0,0,1,.72.48,13.56,13.56,0,0,0,2.67,1.48c.57.25,1.15.47,1.72.69a22.43,22.43,0,0,0,6.73,1.21,26.23,26.23,0,0,0,3.89.06l.26,0,.46-.09a3,3,0,0,1,.32-.06,3.18,3.18,0,0,0,.66-.2h0a21.61,21.61,0,0,0,6.48-3.09,15.64,15.64,0,0,0,4-4.55c0-.09.09-.19.14-.29s.42-1,1.18-3.16a22.1,22.1,0,0,0,1-5.78c0-.35,0-.71.05-1.07s0-1.15,0-2.27c0-.16,0-.31,0-.47a.35.35,0,0,1,0-.14Zm-9.75-15.42a9.2,9.2,0,0,1-.43,1.93,13.19,13.19,0,0,1-1,2.3,6.42,6.42,0,0,1-2,2l-1,.68,0,0a6.15,6.15,0,0,1-.6.33.9.9,0,0,1-.25,0,6.3,6.3,0,0,1-.89.24l-.09.06-.48,0h0l-.28,0a7.16,7.16,0,0,1-3.94-.63h0l-.81-.35-.26-.12-.21-.11a4.92,4.92,0,0,1-.83-.54,8.7,8.7,0,0,1-1.48-1.31l-.09,0a5.91,5.91,0,0,1-.49-.63c0-.07-.07-.14-.11-.22l-.07-.14a4.75,4.75,0,0,0-.31-.59,5.51,5.51,0,0,1-.66-2.63l-.06-1.12a8.3,8.3,0,0,1,5.59-8.13,13.68,13.68,0,0,1,1.81-.45,7.76,7.76,0,0,1,3.64.08L109,89a4.6,4.6,0,0,0,.53.22,5.76,5.76,0,0,1,2.62,2.32A10,10,0,0,1,114.08,98.13Z"/><path class="cls-1" d="M40.46,89.43a9.26,9.26,0,0,1-.07-1.05A20.33,20.33,0,0,0,40,83.69a4.41,4.41,0,0,1,0-.54V83a6.13,6.13,0,0,0-.32-1.83c0-.16-.09-.33-.13-.49l-.09-.34c-.16-.55-.27-1.12-.38-1.69s-.27-1.3-.46-2a11.73,11.73,0,0,0-1.51-3.46l-.48-.69c-.37-.54-.74-1.08-1.14-1.61A10,10,0,0,0,33.69,69L33.6,69a2,2,0,0,1-.44-.41,2.32,2.32,0,0,0-1.1-1,.36.36,0,0,1-.12-.1,5,5,0,0,0-1.37-.92l-.13-.07L30,66.24a9,9,0,0,1-1.15-.63,4.49,4.49,0,0,0-1.12-.55l-.51-.18c-.75-.26-1.52-.53-2.32-.73h0a47.46,47.46,0,0,0-7.18-1.22c-.55,0-1.19-.09-1.86-.12-.42,0-1.17-.06-1.54-.06l-6.16-.08c-.71,0-6.32,0-7,.07a1.89,1.89,0,0,0-.55.19L.42,63A1.68,1.68,0,0,0,0,64.26c0,.52,0,1,0,1.57s0,.91,0,1.36c0,2.25,0,3.78.09,4.17a5.66,5.66,0,0,0,.2,1.09,2.71,2.71,0,0,0,.24.35.46.46,0,0,0,.18.13A5,5,0,0,0,3,73.16l.76,0c.27,0,.54.39.6.65a8.18,8.18,0,0,1,.13,1.3q0,3.6,0,7.2c0,3.33,0,6.65,0,10,0,1.9,0,3.81,0,5.72,0,3.78,0,7.68-.12,11.51a17.72,17.72,0,0,0,.06,1.94,16.49,16.49,0,0,1,.07,1.72c0,.7,0,1.4,0,2.1s0,1.39,0,2.09a1.78,1.78,0,0,0,.5,1.33,2,2,0,0,0,1.29.53c.2,0,.41,0,.61,0h.51a6.74,6.74,0,0,0,.77,0,20.24,20.24,0,0,1,3.15-.11c1.2,0,2.42,0,3.6-.12.63,0,1.26-.07,1.92-.09a1.06,1.06,0,0,0,.24,0,13.92,13.92,0,0,1,2.28-.3c.58-.05,1.16-.1,1.74-.2l1.18-.18a21.4,21.4,0,0,0,3.66-.74l.37-.12a10.56,10.56,0,0,0,2.46-1c.4-.25.82-.46,1.24-.67l.5-.25a8.58,8.58,0,0,0,1.37-.88,6.88,6.88,0,0,0,1.49-1.35,2.22,2.22,0,0,1,.42-.37l.15-.11a6.7,6.7,0,0,0,1.29-1.34c.62-.83,1.27-1.74,2-2.8A10,10,0,0,0,38.38,106h0a34.06,34.06,0,0,0,1.85-9h0c.06-.55.11-1.14.12-1.8,0-1.11.08-2.22.12-3.32l0-1.11A9.36,9.36,0,0,0,40.46,89.43ZM31,91c0,.56,0,1.11,0,1.67a5.28,5.28,0,0,1,0,.55,35.52,35.52,0,0,1-.32,3.87,11.71,11.71,0,0,1-1.26,4.4,8.86,8.86,0,0,1-2,3.06,11.27,11.27,0,0,1-1.15,1.06l-.12.13a3.41,3.41,0,0,1-1.13.74l-.13.07a10.12,10.12,0,0,1-1.4.7s0,0,0,0a8.39,8.39,0,0,1-2.79.79c-.32,0-.64.09-1,.15a7.85,7.85,0,0,1-1.24.17h-.55a6.18,6.18,0,0,0-1.63.13,1.55,1.55,0,0,1-.29,0l-.5,0c-.49,0-1.42-.75-1.47-1.32a18.36,18.36,0,0,1-.09-2V103.3c0-1.07,0-2.14.05-3.21.08-2,.12-3.61.11-5.15V88.53q0-2.23,0-4.47c0-.44,0-.88-.06-1.31s0-.75,0-1.13c0-.88,0-1.77,0-2.66,0-.74,0-1.47,0-2.21s.05-1.61.11-2.4a.85.85,0,0,1,.64-.83h.11a4.87,4.87,0,0,0,1-.1,1.26,1.26,0,0,1,.51,0,8,8,0,0,0,1.54.11,11.17,11.17,0,0,1,1.17.06l1,.17c.42.08.84.16,1.27.21A7.85,7.85,0,0,1,24,75c3,1.29,3.89,2.38,4.68,4.51l0,.07c.06.15.12.3.17.45a13.75,13.75,0,0,1,1.2,3.94h0a11.11,11.11,0,0,1,.27,1.49,18.94,18.94,0,0,1,.51,3.22h0c.07.69.12,1.39.14,2.08h0Z"/><path d="M175.78,88.16a.8.8,0,0,0-.13-.13l-.16-.11c-.63-.39-1.78-.44-3.67-.41l-1.34,0-.49.07a.41.41,0,0,1-.27,0s-.08,0-.11,0c-1.46,0-3.41.12-5.54.2a2.12,2.12,0,0,1-.66.11c-.63,0-1.25,0-1.88,0-3.51.14-7.08.31-9.39.45a5.06,5.06,0,0,1-1.1.1,11.25,11.25,0,0,0-2,.23c-.58.06-1.15.18-1.73.21a7.49,7.49,0,0,0-1.16.13c-1.09.2-2.21.28-3.29.52-.51.11-1,.12-1.54.24s-1.13.4-1.71.53a3.32,3.32,0,0,0-2.21,1.87,6.62,6.62,0,0,0-.8,2.16,12,12,0,0,0-.28,2.66c0,.65.05,1.3.06,2,0,.25,0,.5,0,.75,0,.5,0,1,0,1.49a2.78,2.78,0,0,0,.06.58s0,.08,0,.11c.05.91.13,1.8.23,2.65,0,.35.08.66.12,1a1.38,1.38,0,0,1,0,.2c0,.14,0,.3.06.43l0,.07a15.07,15.07,0,0,0,.54,2.3,2.61,2.61,0,0,0,1.61,1.74,6.29,6.29,0,0,0,1.13.23,2.73,2.73,0,0,0,1.6-.24,6.56,6.56,0,0,1,.62-.23,14,14,0,0,0,2.74-1l.88-.49c.51-.24,10.64-5.11,14.25-7.25l.11-.07a10.11,10.11,0,0,0,1.13-.7h0A98.81,98.81,0,0,0,175,90.91a2.35,2.35,0,0,0,1.11-1.61A1.38,1.38,0,0,0,175.78,88.16Z"/><path d="M165.12,127c1.61-2.29,2.09-4.09,3.8-7.61,1.33-2.72,3-6.95,4.27-10.21.12-.4.24-.8.39-1.19a28.58,28.58,0,0,0,1-2.85,2.21,2.21,0,0,0-1-2.24l-.35-.14c-1.62-.31-4,1-5.69,1.9s-10.16,6.19-12.39,7.54-8,4.67-14.56,9.26c-.44.34-.88.68-1.3,1a28.72,28.72,0,0,0-2.83,2.68,4.18,4.18,0,0,0-1.09,2,1.75,1.75,0,0,0,.77,1.9,11.74,11.74,0,0,0,2.93,1,7.62,7.62,0,0,0,1.06.2,63.83,63.83,0,0,0,12.25.25,63.37,63.37,0,0,0,9.37-1.19A4.8,4.8,0,0,0,165.12,127Z"/><path d="M226.71,127.12a15.2,15.2,0,0,1-.15-2.33c0-.24.15-.47.09-.71a14.44,14.44,0,0,1-.15-2.37,16.74,16.74,0,0,1-.12-2.65,1.1,1.1,0,0,0,0-.18,8.24,8.24,0,0,1-.15-1.56c0-.69-.08-1.38-.13-2.06-.09-1.28-.07-2.55-.14-3.83l-.06-1.17c-.1-1-.25-2.27-.41-3.77v-.13c-.37-3.4-.85-7.71-1.22-11a5.73,5.73,0,0,1-.13-1.16c-.07-.66-.14-1.27-.2-1.79s-.09-.91-.15-1.36-.16-1-.23-1.54a1.88,1.88,0,0,1,0-.34c0-.32-.1-.66-.15-1a1.13,1.13,0,0,1,0-.18c-.38-2.44-.88-5.53-1.38-9.59,0-.3-.07-.61-.11-.92-.07-.59-.13-1.18-.24-1.77-.8-5.09-1.6-12.81-3.73-24.6-.08-.63-.16-1.26-.25-1.89s-.17-1.39-.32-2.07c-.28-1.3-.49-2.62-.77-3.93a2.2,2.2,0,0,1-.09-.43,19.35,19.35,0,0,0-.42-2.64q-.27-1.43-.48-2.85c-.12-.78-.25-1.56-.41-2.33s-.3-1.43-.41-2.14-.21-1.41-.33-2.12-.28-1.09-.39-1.65-.24-1.29-.37-1.93h0a32.63,32.63,0,0,0-.89-4.38,3.4,3.4,0,0,0-.26-.8v0h0a4,4,0,0,0-.24-.46.83.83,0,0,0-.88-.42A1.81,1.81,0,0,0,210,22c-.36.67-.59,1.4-.94,2.07-.51,1-1,2-1.47,3-.72,1.4-1.27,2.88-1.85,4.35-.26.65-.43,1.33-.73,2-.1.23-.26.43-.36.66-.25.61-.49,1.22-.77,1.81-.42.92-.74,1.88-1.16,2.8a10.07,10.07,0,0,0-.58,1.4,23.65,23.65,0,0,1-1,2.56c-.35.81-.65,1.63-1,2.44s-.46,1.54-.81,2.26a14.92,14.92,0,0,0-1.2,2.93,17.81,17.81,0,0,1-.63,1.67c-.31.83-.58,1.68-.81,2.53s-.63,1.61-.88,2.43a14.25,14.25,0,0,0-.5,1.38,3.7,3.7,0,0,1-.39,1.13,2.06,2.06,0,0,0-.18.73v0c-.07.23-.15.46-.23.7a6.83,6.83,0,0,1-.61,1.51,1.72,1.72,0,0,0-.23.58c-.1.53-.21,1.06-.36,1.58s-.37,1.12-.55,1.66h0c-.42,1.3-1,2.93-1.57,4.79a4.65,4.65,0,0,0-.2.52c0,.15-.09.3-.13.46-.57,1.73-1.2,3.62-1.87,5.63a17.61,17.61,0,0,0-.63,1.9c-.92,2.75-1.89,5.64-2.84,8.51V88c-.21.66-.45,1.31-.65,2-.36,1.26-.89,2.47-1.15,3.78s-.79,2.3-1,3.5c-.13.71-.45,1.36-.6,2.06a21,21,0,0,1-.58,2.24c-.24.71-.43,1.42-.64,2.13s-.37,1.32-.56,2c-.14.5-.19,1-.34,1.52a23.45,23.45,0,0,0-.76,2.6c-.1.54-.32,1-.42,1.59-.2,1-.43,2-.65,3-.16.71-.4,1.4-.52,2.12s-.31,1.57-.51,2.34c-.25,1-.43,1.92-.68,2.87,0,.07,0,.14,0,.21-.73,3.35-1.42,5.57-.73,6.76.77,1.35,2.14,1.44,3.31,1.74.45.11,1.64.27,3.09.44l.11,0a2.38,2.38,0,0,0,.95.2,17.64,17.64,0,0,1,2.62.16l2.25.24c.31,0,.62.08.94.11l.33,0,1.64.17a12.51,12.51,0,0,0,1.93.2,1.92,1.92,0,0,0,.24,0c3,.28,6.9.58,9.43.72l.18,0a5.52,5.52,0,0,0,1.62,0,157.73,157.73,0,0,0,16.6-1.24c3.56-.6,4.35-1,4.89-1.35a1.5,1.5,0,0,0,.91-1.14A8.74,8.74,0,0,0,226.71,127.12Z"/></g></g></svg>