<svg xmlns="http://www.w3.org/2000/svg" viewBox="0 0 71.39 71.39"><defs><style>.cls-1{fill:#040000;}</style></defs><title>アセット 3</title><g id="レイヤー_2" data-name="レイヤー 2"><g id="レイヤー_7" data-name="レイヤー 7"><path class="cls-1" d="M58.3,0H13.09A13.1,13.1,0,0,0,0,13.09V58.3A13.1,13.1,0,0,0,13.09,71.39H58.3A13.1,13.1,0,0,0,71.39,58.3V13.09A13.1,13.1,0,0,0,58.3,0ZM35.69,59.2A23.51,23.51,0,1,1,59.2,35.69,23.54,23.54,0,0,1,35.69,59.2ZM60,17.05a5.56,5.56,0,1,1,5.56-5.56A5.56,5.56,0,0,1,60,17.05Z"/><path class="cls-1" d="M35.69,22.12A13.58,13.58,0,1,0,49.26,35.69,13.59,13.59,0,0,0,35.69,22.12Z"/></g></g></svg>