<svg xmlns="http://www.w3.org/2000/svg" viewBox="0 0 78.53 63.82"><defs><style>.cls-1{fill:#040000;}</style></defs><title>アセット 2</title><g id="レイヤー_2" data-name="レイヤー 2"><g id="レイヤー_7" data-name="レイヤー 7"><path class="cls-1" d="M78.53,7.55a31.93,31.93,0,0,1-9.25,2.54,16.15,16.15,0,0,0,7.08-8.91A32.32,32.32,0,0,1,66.13,5.09a16.12,16.12,0,0,0-27.87,11,15.89,15.89,0,0,0,.42,3.67A45.71,45.71,0,0,1,5.47,3a16.14,16.14,0,0,0,5,21.51,16.05,16.05,0,0,1-7.29-2,1.48,1.48,0,0,0,0,.21A16.12,16.12,0,0,0,16.08,38.44a16.06,16.06,0,0,1-7.28.28A16.13,16.13,0,0,0,23.85,49.91,32.42,32.42,0,0,1,0,56.58a45.62,45.62,0,0,0,24.7,7.24c29.63,0,45.84-24.55,45.84-45.84,0-.7,0-1.39-.05-2.09A32.54,32.54,0,0,0,78.53,7.55Z"/></g></g></svg>