<svg xmlns="http://www.w3.org/2000/svg" viewBox="0 0 83.96 80"><defs><style>.cls-1{fill:#040000;}</style></defs><title>アセット 4</title><g id="レイヤー_2" data-name="レイヤー 2"><g id="レイヤー_7" data-name="レイヤー 7"><path class="cls-1" d="M84,34.07C84,15.28,65.13,0,42,0S0,15.28,0,34.07C0,50.91,14.93,65,35.11,67.68c1.37.29,3.23.9,3.7,2.07a8.7,8.7,0,0,1,.13,3.8s-.49,3-.6,3.59c-.18,1.06-.84,4.15,3.64,2.26S66.16,65.17,75,55h0C81.05,48.36,84,41.59,84,34.07Zm-56.79,10a.82.82,0,0,1-.82.81H14.59a.83.83,0,0,1-.57-.22h0v0a.79.79,0,0,1-.23-.56h0V25.81a.82.82,0,0,1,.82-.82h2.94a.82.82,0,0,1,.82.82V40.33h8a.82.82,0,0,1,.82.82Zm7.1,0a.82.82,0,0,1-.82.81H30.51a.81.81,0,0,1-.82-.81V25.81a.82.82,0,0,1,.82-.82h2.94a.82.82,0,0,1,.82.82Zm20.27,0a.82.82,0,0,1-.82.81H50.77l-.2,0h-.1l0,0,0,0h0l0,0h0a.8.8,0,0,1-.21-.2L41.71,33.23V44.1a.81.81,0,0,1-.82.81H38a.82.82,0,0,1-.82-.81V25.81A.82.82,0,0,1,38,25h3.17l.05,0h0l.05,0h0a.05.05,0,0,0,0,0l0,0,.05,0h0s0,0,0,0h0l0,.06h0l.06.08L50,36.67V25.81a.82.82,0,0,1,.81-.82h2.95a.82.82,0,0,1,.82.82ZM70.8,28.75a.82.82,0,0,1-.82.82H62v3.09h8a.82.82,0,0,1,.82.82v2.94a.82.82,0,0,1-.82.82H62v3.09h8a.82.82,0,0,1,.82.82v3a.82.82,0,0,1-.82.81H58.22a.83.83,0,0,1-.57-.22h0v0a.79.79,0,0,1-.23-.56h0V25.81h0a.84.84,0,0,1,.23-.57h0a.84.84,0,0,1,.57-.23H70a.82.82,0,0,1,.82.82Z"/></g></g></svg>